<svg width="89" height="89" viewBox="0 0 89 89" fill="none" xmlns="http://www.w3.org/2000/svg">
<path d="M65.7593 22.7402C66.1121 22.7404 66.4212 22.9241 66.5991 23.2002C66.842 23.3827 67.0004 23.6719 67.0005 23.999V51.666C67.0005 52.2182 66.5526 52.6659 66.0005 52.666C65.4482 52.666 65.0005 52.2183 65.0005 51.666V25.8428L24.1216 66.7217C23.731 67.1121 23.098 67.1122 22.7075 66.7217C22.3171 66.3312 22.3171 65.6981 22.7075 65.3076L63.2749 24.7402H38.0923C37.54 24.7402 37.0923 24.2925 37.0923 23.7402C37.0923 23.1879 37.54 22.7402 38.0923 22.7402H65.7593Z" fill="#000000"/>
</svg>
